<?xml version="1.0" encoding="UTF-8"?>
<!DOCTYPE svg PUBLIC "-//W3C//DTD SVG 1.1//EN" "http://www.w3.org/Graphics/SVG/1.1/DTD/svg11.dtd">
<!-- Creator: CorelDRAW 2020 (64-Bit Evaluation Version) -->
<svg xmlns="http://www.w3.org/2000/svg" xml:space="preserve" width="3.94678in" height="0.746898in" version="1.1" style="shape-rendering:geometricPrecision; text-rendering:geometricPrecision; image-rendering:optimizeQuality; fill-rule:evenodd; clip-rule:evenodd"
viewBox="0 0 2701.48 511.23"
 xmlns:xlink="http://www.w3.org/1999/xlink"
 xmlns:xodm="http://www.corel.com/coreldraw/odm/2003">
 <defs>
  <style type="text/css">
   <![CDATA[
    .fil1 {fill:#01BCDF}
    .fil0 {fill:#0C9EBA}
    .fil2 {fill:#FEFEFE;fill-rule:nonzero}
    .fil3 {fill:#39C3E0;fill-rule:nonzero}
   ]]>
  </style>
 </defs>
 <g id="Layer_x0020_1">
  <metadata id="CorelCorpID_0Corel-Layer"/>
  <g id="_2055497628608">
   <g>
    <path class="fil0" d="M62.81 136.98l210.27 -121.4c9.32,-5.38 20.89,-1.89 25.71,7.76l34.57 69.23 -122.49 0 0 265.61c0,35.49 8.19,60.24 24.58,74.27 13.82,11.83 36.24,18.66 67.25,20.52l-63.76 36.81c-9.32,5.38 -20.89,1.89 -25.71,-7.76l-158.62 -317.7c-4.82,-9.65 -1.13,-21.95 8.19,-27.34z"/>
    <path class="fil1" d="M10.5 133.26l225.96 -130.46c10.02,-5.79 22.94,-2.32 28.73,7.7l47.38 82.06 -101.71 0 0 265.61c0,35.49 8.19,60.24 24.58,74.27 13.82,11.83 36.25,18.66 67.25,20.52l-80.71 46.6c-10.02,5.79 -22.95,2.32 -28.73,-7.7l-190.45 -329.87c-5.79,-10.02 -2.32,-22.95 7.7,-28.73z"/>
   </g>
   <g>
    <path class="fil2" d="M446.28 434.63l-112.9 0c-35.84,0 -61,-6.2 -75.49,-18.59 -14.48,-12.4 -21.73,-34.27 -21.73,-65.63l0 -234.75 210.11 0 0 55.55 -147.84 0 0 74.82 103.49 0 -4.48 55.55 -99.01 0 0 44.35c0,12.54 2.84,21.21 8.51,25.99 5.68,4.78 15.98,7.17 30.91,7.17l108.41 0 0 55.55zm218.17 0l-139.33 0c-15.23,0 -26.95,-3.21 -35.17,-9.63 -8.21,-6.42 -12.32,-15.46 -12.32,-27.1 0,-11.65 4.93,-23.89 14.78,-36.74l106.62 -132.16 -106.62 0 0 -50.18 176.51 0 0 44.35 -127.23 161.28 122.75 0 0 50.17zm239.23 -255.81l-97.21 284.48c-4.48,12.84 -10.3,22.85 -17.47,30.01 -11.95,11.95 -28.67,17.92 -50.17,17.92l-27.33 0 0 -52.42 17.92 0c8.36,0 14.56,-1.42 18.59,-4.26 4.03,-2.84 7.54,-8.44 10.53,-16.8l4.48 -12.54 -77.05 -246.4 61.38 0 45.7 177.85 49.28 -177.85 61.38 0z"/>
    <path class="fil3" d="M967.75 81.16c14.04,0 23.15,2.16 27.33,6.49 4.18,4.33 6.27,13.44 6.27,27.33 0,13.89 -2.16,23 -6.49,27.33 -4.33,4.33 -13.44,6.5 -27.33,6.5 -13.89,0 -23,-2.24 -27.33,-6.72 -4.33,-4.48 -6.5,-13.59 -6.5,-27.33 0,-13.74 2.17,-22.77 6.5,-27.1 4.33,-4.33 13.51,-6.49 27.55,-6.49zm28.67 353.47l-58.24 0 0 -246.4 58.24 0 0 246.4zm263.42 0l-58.24 0 0 -163.52c0,-14.64 -2.99,-24.64 -8.96,-30.02 -5.97,-5.38 -14.34,-8.06 -25.09,-8.06l-52.42 21.95 0 179.65 -58.24 0 0 -255.81 43.46 0 13.44 30.46 71.68 -33.15c20.01,0 37.41,7.39 52.19,22.18 14.78,14.78 22.18,36.36 22.18,64.73l0 171.58zm244.61 -255.81l-85.57 255.81 -45.7 0 -86.02 -255.81 61.38 0 47.49 166.65 47.04 -166.65 61.38 0zm172.93 140.22l0 -23.3c0,-22.1 -3.21,-38.97 -9.63,-50.62 -6.42,-11.65 -19.79,-17.47 -40.1,-17.47 -32.85,0 -49.28,22.1 -49.28,66.3l0 23.3c0,47.49 16.43,71.23 49.28,71.23 21.21,0 35.09,-7.91 41.66,-23.74 5.38,-12.54 8.07,-27.78 8.07,-45.7zm58.24 -13.44c0,55.25 -10.45,92.29 -31.36,111.1 -17.62,16.13 -43.16,24.19 -76.61,24.19 -42.71,0 -71.53,-12.54 -86.46,-37.63 -14.04,-23 -21.05,-55.55 -21.05,-97.66 0,-39.42 7.02,-70.33 21.05,-92.73 15.53,-25.09 43.83,-37.63 84.9,-37.63 41.07,0 69.59,10.98 85.57,32.93 15.98,21.95 23.97,54.43 23.97,97.44zm76.16 -224.44c14.04,0 23.15,2.16 27.33,6.49 4.18,4.33 6.27,13.44 6.27,27.33 0,13.89 -2.16,23 -6.49,27.33 -4.33,4.33 -13.44,6.5 -27.33,6.5 -13.89,0 -23,-2.24 -27.33,-6.72 -4.33,-4.48 -6.5,-13.59 -6.5,-27.33 0,-13.74 2.17,-22.77 6.5,-27.1 4.33,-4.33 13.51,-6.49 27.55,-6.49zm28.67 353.47l-58.24 0 0 -246.4 58.24 0 0 246.4zm195.77 -93.63l52.86 -0.45c-0.3,2.39 -0.6,6.72 -0.89,12.99 -0.3,6.27 -0.52,10.53 -0.67,12.77 -0.15,2.24 -0.52,5.75 -1.12,10.53 -0.6,4.78 -1.27,8.29 -2.02,10.53 -0.75,2.24 -1.72,5.15 -2.91,8.74 -5.38,15.53 -20.01,27.78 -43.9,36.74 -15.23,5.38 -31.14,8.06 -47.71,8.06 -16.58,0 -31.58,-2.69 -45.02,-8.06 -13.44,-5.38 -24.04,-12.25 -31.81,-20.61 -17.62,-18.52 -26.43,-53.24 -26.43,-104.16 0,-50.92 8.81,-85.64 26.43,-104.16 7.77,-8.36 18.37,-15.23 31.81,-20.61 13.44,-5.38 28.37,-8.07 44.8,-8.07 32.26,0 56.75,8.07 73.47,24.19 16.73,16.13 25.09,38.53 25.09,67.2l-52.86 0c0,-13.14 -3.28,-22.92 -9.85,-29.34 -6.57,-6.42 -18.74,-9.63 -36.51,-9.63 -17.77,0 -29.57,5.52 -35.39,16.58 -5.82,11.05 -8.74,27.63 -8.74,49.73l0 23.3c0,35.54 6.87,57.34 20.61,65.41 6.27,3.88 14.48,5.82 24.64,5.82 10.15,0 18.44,-0.97 24.86,-2.91 6.42,-1.94 11.05,-5.3 13.89,-10.08 2.84,-4.78 4.71,-9.48 5.6,-14.11 0.9,-4.63 1.5,-11.42 1.79,-20.38zm131.26 -259.84c14.04,0 23.15,2.16 27.33,6.49 4.18,4.33 6.27,13.44 6.27,27.33 0,13.89 -2.16,23 -6.49,27.33 -4.33,4.33 -13.44,6.5 -27.33,6.5 -13.89,0 -23,-2.24 -27.33,-6.72 -4.33,-4.48 -6.5,-13.59 -6.5,-27.33 0,-13.74 2.17,-22.77 6.5,-27.1 4.33,-4.33 13.51,-6.49 27.55,-6.49zm28.67 353.47l-58.24 0 0 -246.4 58.24 0 0 246.4zm263.42 0l-58.24 0 0 -163.52c0,-14.64 -2.99,-24.64 -8.96,-30.02 -5.97,-5.38 -14.34,-8.06 -25.09,-8.06l-52.42 21.95 0 179.65 -58.24 0 0 -255.81 43.46 0 13.44 30.46 71.68 -33.15c20.01,0 37.41,7.39 52.19,22.18 14.78,14.78 22.18,36.36 22.18,64.73l0 171.58zm183.68 -254.01l58.24 -3.58 0 245.95c0,28.37 -7.99,50.1 -23.97,65.18 -15.98,15.08 -39.65,22.63 -71.01,22.63 -24.19,0 -45.4,-4.78 -63.61,-14.34 -9.56,-4.78 -17.17,-11.95 -22.85,-21.5 -5.68,-9.56 -8.51,-20.91 -8.51,-34.05l54.21 -2.69c0,8.36 2.99,14.34 8.96,17.92 5.97,3.58 16.2,5.38 30.69,5.38 14.48,0 24.34,-3.58 29.57,-10.75 5.23,-7.17 7.84,-17.47 7.84,-30.91l2.24 -38.53 -62.72 33.6c-34.35,0 -57.49,-11.65 -69.44,-34.94 -10.75,-20.61 -16.13,-45.84 -16.13,-75.71 0,-35.54 2.69,-60.63 8.07,-75.26 5.68,-16.13 13.74,-27.78 24.19,-34.95 13.44,-8.96 31.06,-13.44 52.86,-13.44l61.37 0zm0 150.08l0 -97.66 -44.35 0c-16.72,0 -28.22,5.68 -34.5,17.02 -6.27,11.35 -9.41,27.18 -9.41,47.49 0,20.31 3.21,34.72 9.63,43.23 6.42,8.51 17.85,12.77 34.27,12.77l44.35 -22.85z"/>
   </g>
  </g>
 </g>
</svg>
