<?xml version="1.0" encoding="UTF-8"?>
<!DOCTYPE svg PUBLIC "-//W3C//DTD SVG 1.1//EN" "http://www.w3.org/Graphics/SVG/1.1/DTD/svg11.dtd">
<!-- Creator: CorelDRAW 2020 (64-Bit Evaluation Version) -->
<svg xmlns="http://www.w3.org/2000/svg" xml:space="preserve" width="0.355346in" height="0.400008in" version="1.1" style="shape-rendering:geometricPrecision; text-rendering:geometricPrecision; image-rendering:optimizeQuality; fill-rule:evenodd; clip-rule:evenodd"
viewBox="0 0 51.82 58.33"
 xmlns:xlink="http://www.w3.org/1999/xlink"
 xmlns:xodm="http://www.corel.com/coreldraw/odm/2003">
 <defs>
  <style type="text/css">
   <![CDATA[
    .fil1 {fill:#01BCDF}
    .fil0 {fill:#0C9EBA}
    .fil2 {fill:#0C9EBA;fill-rule:nonzero}
   ]]>
  </style>
 </defs>
 <g id="Layer_x0020_1">
  <metadata id="CorelCorpID_0Corel-Layer"/>
  <g id="_2557740993248">
   <g>
    <path class="fil0" d="M7.29 15.9l24.41 -14.1c1.08,-0.63 2.43,-0.22 2.98,0.9l4.01 8.04 -14.22 0 0 30.84c0,4.12 0.95,6.99 2.85,8.62 1.61,1.37 4.21,2.17 7.81,2.38l-7.4 4.27c-1.08,0.63 -2.43,0.22 -2.99,-0.9l-18.42 -36.89c-0.56,-1.12 -0.13,-2.55 0.95,-3.17z"/>
    <path class="fil1" d="M1.22 15.47l26.24 -15.15c1.16,-0.67 2.66,-0.27 3.34,0.89l5.5 9.53 -11.81 0 0 30.84c0,4.12 0.95,6.99 2.85,8.62 1.61,1.37 4.21,2.17 7.81,2.38l-9.37 5.41c-1.16,0.67 -2.66,0.27 -3.34,-0.89l-22.11 -38.3c-0.67,-1.16 -0.27,-2.66 0.89,-3.34z"/>
   </g>
   <path class="fil2" d="M51.82 50.46l-13.11 0c-4.16,0 -7.08,-0.72 -8.76,-2.16 -1.68,-1.44 -2.52,-3.98 -2.52,-7.62l0 -27.26 24.4 0 0 6.45 -17.17 0 0 8.69 12.02 0 -0.52 6.45 -11.5 0 0 5.15c0,1.46 0.33,2.46 0.99,3.02 0.66,0.56 1.85,0.83 3.59,0.83l12.59 0 0 6.45z"/>
  </g>
 </g>
</svg>
