<svg xmlns="http://www.w3.org/2000/svg" width="898.998" height="816.902" viewBox="0 0 898.998 816.902">
  <g id="Group_6" data-name="Group 6" transform="translate(-1127.45 -587.063)">
    <path id="Path_5" data-name="Path 5" d="M970.194,402.6l-39.589,52.79C894.413,257.561,719.592,115.509,518.543,120.6S150.051,276.356,123.9,475.766s96.748,388.178,289.685,444.939S812.064,885.312,898.06,703.511a27.3,27.3,0,0,0-49.3-23.445c-74.742,158.756-254.186,239.16-422.426,189.287s-274.846-215.1-250.988-388.939S346.41,176.2,521.856,173.493,848.439,296.576,877.651,469.6l-60.236-45.171a27.278,27.278,0,1,0-32.742,43.639L893.8,549.909a27.352,27.352,0,0,0,3.663,1.918,32.088,32.088,0,0,0,3.077,1.612,27.4,27.4,0,0,0,9.631,1.932,26.729,26.729,0,0,0,11.323-2.731,25.608,25.608,0,0,0,2.731-1.745,26.634,26.634,0,0,0,6.62-5.448c.36-.413.906-.573,1.265-1.039l81.842-109.123A27.283,27.283,0,0,0,970.3,402.542Zm0,0" transform="translate(1007.046 466.598)" fill="#fff"/>
    <g id="Group_4" data-name="Group 4" transform="translate(1501.016 784.435)">
      <rect id="Rectangle_1" data-name="Rectangle 1" width="98" height="308" rx="49" transform="translate(-0.016 -0.435)" fill="#fff"/>
      <rect id="Rectangle_2" data-name="Rectangle 2" width="98" height="98" rx="49" transform="translate(-0.016 327.565)" fill="#fff"/>
    </g>
  </g>
</svg>
